<svg width="72" height="72" viewBox="0 0 72 72" fill="none" xmlns="http://www.w3.org/2000/svg">
<g id="001-responsive">
<path id="Shape" fill-rule="evenodd" clip-rule="evenodd" d="M31.0125 31.4908C31.6663 31.4908 32.1953 32.0203 32.1953 32.6735V63.8686C32.1953 64.5217 31.6663 65.0513 31.0125 65.0513H5.87904C5.22587 65.0513 4.69629 64.5217 4.69629 63.8686V32.6735C4.69629 32.0203 5.22587 31.4908 5.87904 31.4908H31.0125ZM7.06179 62.6858H29.8298V33.8563H7.06179V62.6858Z" fill="black"/>
<path id="Path" d="M19.636 66.0862H17.2653C16.6115 66.0862 16.0825 66.6158 16.0825 67.269C16.0825 67.9222 16.6115 68.4517 17.2653 68.4517H19.636C20.2891 68.4517 20.8187 67.9222 20.8187 67.269C20.8187 66.6158 20.2891 66.0862 19.636 66.0862Z" fill="black"/>
<path id="Shape_2" fill-rule="evenodd" clip-rule="evenodd" d="M68.3294 0.000238612H52.2987C50.3207 0.000238612 48.6407 1.54567 48.6407 3.52366V9.75794H12.2925C8.60217 9.76891 5.617 12.7645 5.61815 16.4542V27.7949H4.89395C2.16807 27.7949 8.11956e-05 30.0622 8.11956e-05 32.791V66.9591C-0.0074265 68.2597 0.505985 69.5094 1.42654 70.4288C2.34653 71.3482 3.59627 71.8611 4.89683 71.8524H30.9826C32.0499 71.8616 33.0738 71.4343 33.8182 70.6696C34.5609 69.9039 35.0391 68.9319 34.8913 67.8716V62.0947H62.467C66.1666 62.0883 69.1691 59.0985 69.191 55.3984V51.1693C69.1737 50.5051 68.632 49.975 67.9679 49.9715H66.2342V38.4397H68.3294C70.3074 38.4397 71.8522 36.7608 71.8522 34.7828V3.52366C71.8632 2.58578 71.4959 1.6837 70.8323 1.02013C70.1694 0.357143 69.2667 -0.0107342 68.3294 0.000238612ZM51.0062 7.68812H69.4867V28.8298H51.0062V7.68812ZM68.3294 2.36574H52.2987C51.6253 2.36574 51.0062 2.85028 51.0062 3.52366V5.32262H69.4867V3.52366C69.4989 3.21353 69.3805 2.91207 69.161 2.69204C68.941 2.47258 68.6395 2.35419 68.3294 2.36574ZM7.98365 16.4542C7.98077 14.0702 9.90793 12.1333 12.2925 12.1234H48.6407V15.5239H12.2197C11.5666 15.5239 11.0884 16.1181 11.0884 16.7713V27.7949H7.98365V16.4542ZM30.9826 69.4869C31.421 69.5007 31.8454 69.3333 32.1561 69.0237C32.4414 68.7252 32.5887 68.3215 32.5627 67.9097C32.5627 67.9036 32.5538 67.9016 32.5448 67.8996C32.5359 67.8976 32.5269 67.8955 32.5269 67.8895V32.791C32.5269 31.3657 31.4273 30.1604 29.9985 30.1604H4.89683C3.47153 30.1604 2.36558 31.3657 2.36558 32.7944V66.9556C2.35692 67.6308 2.62142 68.2799 3.09845 68.7569C3.57606 69.2334 4.22576 69.4967 4.90088 69.4869H30.9826ZM30.002 27.7949H13.4539V17.8894H48.6407V34.7828C48.6708 36.7909 50.2913 38.4108 52.2987 38.4397H58.3984V49.9715H43.9964C43.6654 49.9744 43.3501 50.1153 43.1266 50.3602L42.0103 51.5539C41.1902 52.4352 40.0392 52.9336 38.8351 52.9284H34.8913V32.7875C34.8913 30.0622 32.7308 27.7949 30.002 27.7949ZM62.467 59.7292C64.8608 59.724 66.8048 57.7928 66.8255 55.3984V52.337H44.515L43.7498 53.1536C42.4815 54.5212 40.6999 55.2968 38.8351 55.2939H34.8913V59.7292H62.467ZM63.8687 49.9715H60.7639V38.4397H63.8687V49.9715ZM52.2987 36.0742H68.3294C69.0028 36.0742 69.4867 35.4568 69.4867 34.7828V31.1953H51.0062V34.7828C51.0345 35.4845 51.5976 36.047 52.2987 36.0742Z" fill="black"/>
<path id="Path_2" d="M62.9467 32.23H59.8419C59.1888 32.23 58.6592 32.7596 58.6592 33.4127C58.6592 34.0659 59.1888 34.5955 59.8419 34.5955H62.9467C63.6004 34.5955 64.1294 34.0659 64.1294 33.4127C64.1294 32.7596 63.6004 32.23 62.9467 32.23Z" fill="black"/>
</g>
</svg>
